<?xml version="1.0" encoding="UTF-8"?>
<!DOCTYPE svg PUBLIC "-//W3C//DTD SVG 1.1//EN" "http://www.w3.org/Graphics/SVG/1.1/DTD/svg11.dtd">
<!-- Creator: CorelDRAW 2020 (64 Bit) -->
<svg xmlns="http://www.w3.org/2000/svg" xml:space="preserve" width="150mm" height="75mm" version="1.1" style="shape-rendering:geometricPrecision; text-rendering:geometricPrecision; image-rendering:optimizeQuality; fill-rule:evenodd; clip-rule:evenodd"
viewBox="0 0 15000 7500"
 xmlns:xlink="http://www.w3.org/1999/xlink"
 xmlns:xodm="http://www.corel.com/coreldraw/odm/2003">
 <defs>
  <style type="text/css">
   <![CDATA[
    .fil0 {fill:#149CBB}
    .fil1 {fill:#7A7B7D}
    .fil2 {fill:#2B2A29;fill-rule:nonzero}
   ]]>
  </style>
 </defs>
 <g id="Camada_x0020_1">
  <metadata id="CorelCorpID_0Corel-Layer"/>
  <g id="_1507593098432">
   <g>
    <path class="fil0" d="M7439.04 1015.49c223.06,253.58 -20.66,636.44 -152.92,477.7 -131.17,-157.42 -2.5,-462.46 163.59,-627.76 356.86,-355.14 781.5,-507.12 1289.32,-337.21 432.01,144.56 687.77,502.2 683.28,1076.14 -2.02,257.95 -68.81,518.86 -157.12,721.37 -72.15,165.46 -232.93,445.31 -339.79,533.25 -69.82,-16.04 -129.68,-51.34 -214.65,-67.31 -284.43,-53.53 -599.46,72.65 -806.83,251.69 -27.44,23.7 -48.82,45.23 -67.24,63.49l-123.43 140.95c-52.48,68.63 -126.35,182.55 -135.35,270.84 42.46,32.34 50.02,53.99 97.3,76.61 90.46,-77 176.3,-276.14 495.65,-428.79 630.73,-301.49 1025.87,180.84 730.28,716.32 -93.85,170 -181.42,257.85 -322.69,361.21l-124.37 89.88c-1.26,-2.4 -5.16,4.82 -7.54,7.43 29.13,43.21 63.09,82.21 110.39,104.16 67.9,4.24 884.51,-501.94 582.09,-1317.87 -29.12,-78.58 -62.33,-119.49 -90.36,-181.24 290.12,-342.21 801.33,-1105.4 684.87,-1810.03 -181.8,-1099.8 -1560.26,-1355.8 -2345.61,-661.69 -161.12,142.39 -414.36,497.27 -407.52,840.13 7.15,357.99 342.71,693.95 639.58,418.28 215.48,-200.07 233.34,-571.51 78.62,-836.83l-55.22 -80.05c-1.14,-4.88 -4.87,-5.28 -7.65,-7.54 -61.09,33.37 -170.71,140.76 -196.68,206.87z"/>
    <path class="fil0" d="M4801.67 1166.96c-305.84,762.84 -13.71,1468.25 521.74,1946.68 41.16,36.78 72.32,58.83 112,98.69 254.09,255.26 847.84,653.24 1024,831.38 58.37,59.02 150.57,144.14 198.04,222.91 119.31,197.97 113.46,241.84 135.5,277.26 46.62,-321.31 -56.03,-533.83 -201.34,-710.85 -149,-181.48 -291.2,-331.66 -455.53,-479.17 -334.17,-299.95 -692.4,-584.78 -872.17,-995.89 -398.36,-910.99 479.72,-1800.45 1398.54,-1701.39 144.09,15.54 266.74,72.77 386.2,85.05 31.73,-83.93 159.76,-214.15 188.68,-265.85 -64.97,-29.31 -127.96,-74.59 -197.8,-106.41 -219.07,-99.78 -469.47,-163.73 -719.79,-167.18 -620.22,-8.53 -1280.71,372.77 -1518.07,964.77z"/>
    <path class="fil1" d="M7549.11 3562.48c-204.03,258.03 -325.77,629.98 -473.41,943.02 -226.6,480.49 211.46,446.14 181.08,99.01 -9,-102.66 -49.66,-84.97 -14.97,-196.01 79.08,-253.12 160.03,-429.55 295.37,-652.05 27.12,-44.58 69.83,-101.78 84.89,-144.31 -40.75,-30.01 -19.66,-28.49 -72.96,-49.66z"/>
    <path class="fil1" d="M8438.48 4414.03c-153.79,87.54 -307.62,255.67 -635.89,410l-94.13 39.31c-38,14.5 -57.99,23.26 -95.73,34.58 -149.15,44.7 -234.58,-43.77 -433.11,39.88 -129.71,54.65 -132.8,392.1 315.93,106.65 129.3,-82.26 297.82,-81.05 704.82,-349.27 99.46,-65.55 204.81,-172.39 293.72,-222.99l-55.61 -58.16z"/>
   </g>
   <path class="fil2" d="M937.2 6496.64l619.72 0 -232.86 -754.54c-6.93,-22.92 -17.05,-59.68 -29.3,-110.84 -12.8,-51.15 -28.78,-116.69 -48.5,-196.62 -13.33,55.95 -26.64,109.77 -39.96,160.92 -12.79,50.62 -26.11,99.65 -39.44,146.54l-229.66 754.54zm-873.37 853.66l789.17 -2286.01 780.65 0 789.72 2286.01 -619.73 0 -115.63 -409.24 -885.09 0 -118.83 409.24 -620.26 0zm5199.2 0l-582.42 0 -133.77 -988.47c-9.58,-69.81 -18.1,-147.08 -26.11,-232.86 -7.45,-85.26 -14.91,-178.51 -20.78,-279.23 -14.92,96.99 -43.15,217.4 -85.78,362.36 -9.59,29.83 -16.52,52.22 -20.78,67.14l-310.14 1071.06 -415.63 0 -310.13 -1071.06c-4.26,-14.92 -10.65,-37.31 -19.19,-67.14 -43.69,-144.96 -71.93,-264.85 -85.78,-360.76 -5.87,86.32 -13.32,172.12 -21.85,256.85 -7.99,84.71 -18.11,169.44 -29.31,253.64l-134.28 988.47 -579.23 0 352.76 -2286.01 616.53 0 344.75 1178.71c2.14,8.52 6.4,21.84 12.8,41.03 31.98,104.98 52.22,195.02 60.74,270.16 4.28,-41.03 11.73,-85.8 23.46,-135.34 11.19,-49.57 27.18,-109.24 46.89,-179.05l347.96 -1175.51 618.12 0 351.17 2286.01zm335.16 0l0 -2286.01 1400.38 0 0 501.97 -792.9 0 0 396.44 747.61 0 0 489.19 -747.61 0 0 386.85 792.9 0 0 511.56 -1400.38 0zm3698.64 -1739.28c-109.24,-118.83 -225.94,-206.75 -349.56,-263.23 -124.16,-57.02 -261.11,-85.27 -410.84,-85.27 -120.97,0 -238.72,24.51 -353.83,73.54 -114.56,49.01 -214.74,117.22 -298.94,204.62 -87.39,90.58 -152.92,191.83 -196.62,303.73 -43.69,111.91 -65.54,235.53 -65.54,370.88 0,106.04 12.78,204.09 38.89,293.61 26.11,89.51 65.02,171.59 117.24,246.71 91.65,130.02 204.09,230.2 337.84,300.54 133.74,70.34 278.16,105.51 433.22,105.51 146.01,0 281.35,-30.37 406.04,-90.58 125.23,-60.22 239.26,-150.28 342.1,-270.16l0 360.74c-113.5,82.06 -235.53,144.4 -366.08,186.5 -130.56,42.1 -265.91,62.88 -405.51,62.88 -120.43,0 -238.19,-18.11 -352.76,-53.81 -114.57,-35.7 -221.66,-88.46 -321.85,-157.2 -166.25,-115.1 -293.61,-257.38 -381.54,-425.76 -87.92,-168.92 -132.15,-353.82 -132.15,-555.79 0,-175.84 29.32,-336.23 88.45,-480.1 58.62,-144.42 148.15,-274.97 269.11,-392.73 116.69,-112.43 245.66,-196.63 387.39,-252.05 141.74,-55.95 296.27,-83.67 463.59,-83.67 132.69,0 260.58,20.27 384.21,60.23 124.16,39.96 246.18,101.77 367.14,185.96l0 354.9zm451.35 1739.28l0 -2420.29 249.38 0 0 2420.29 -249.38 0zm716.7 -2117.62c0,-48.49 17.58,-90.59 52.22,-125.75 35.17,-34.65 77.8,-52.23 127.88,-52.23 48.5,0 90.6,17.58 125.76,53.29 34.63,35.17 52.23,77.8 52.23,127.89 0,49.03 -17.06,91.12 -51.69,125.22 -34.11,34.63 -76.73,51.69 -126.3,51.69 -50.08,0 -92.71,-17.06 -127.88,-51.69 -34.64,-34.1 -52.22,-77.26 -52.22,-128.42zm57.55 2117.62l0 -1429.16 246.18 0 0 1429.16 -246.18 0zm761.46 0l0 -1429.16 239.79 0 0 220.61c61.28,-91.65 135.35,-159.86 221.67,-204.63 86.33,-44.75 186.51,-67.14 299.48,-67.14 168.92,0 300.53,44.78 394.85,134.28 94.85,89.53 142.28,214.22 142.28,373.56l0 972.48 -249.38 0 0 -841.4c0,-144.95 -30.37,-252.05 -91.13,-322.4 -61.28,-70.33 -155.06,-105.49 -281.89,-105.49 -73,0 -139.61,13.31 -199.28,39.96 -59.69,26.64 -109.24,63.95 -149.21,112.96 -29.84,37.31 -51.69,80.47 -64.47,127.9 -13.33,47.96 -19.73,131.09 -19.73,249.91l0 738.56 -242.98 0zm1736.62 -2117.62c0,-48.49 17.58,-90.59 52.22,-125.75 35.17,-34.65 77.8,-52.23 127.89,-52.23 48.49,0 90.59,17.58 125.75,53.29 34.64,35.17 52.23,77.8 52.23,127.89 0,49.03 -17.06,91.12 -51.69,125.22 -34.11,34.63 -76.73,51.69 -126.29,51.69 -50.09,0 -92.72,-17.06 -127.89,-51.69 -34.64,-34.1 -52.22,-77.26 -52.22,-128.42zm57.55 2117.62l0 -1429.16 246.18 0 0 1429.16 -246.18 0zm1858.11 -338.91l0 284.55c-64.48,38.37 -136.95,67.15 -217.96,86.33 -80.45,19.18 -167.84,28.77 -261.62,28.77 -220.62,0 -398.06,-69.8 -532.88,-209.94 -134.81,-140.14 -202.48,-323.99 -202.48,-552.05 0,-229.14 69.79,-416.17 209.42,-561.12 139.61,-145.48 318.12,-217.95 535.53,-217.95 78.86,0 156.13,8.54 231.79,25.05 75.67,16.52 146.54,41.04 213.14,73.53l0 262.72c-62.34,-40.5 -126.81,-71.4 -193.43,-92.72 -66.61,-21.32 -134.28,-31.97 -203.02,-31.97 -160.39,0 -289.34,50.08 -385.78,150.8 -97,100.18 -145.49,233.92 -145.49,400.18 0,147.07 48.49,269.62 146,368.74 97.53,98.58 219.55,148.14 366.09,148.14 74.07,0 146.54,-13.33 217.4,-39.44 70.89,-26.11 144.96,-67.14 223.29,-123.62z"/>
  </g>
 </g>
</svg>
